<svg width="368" height="298" viewBox="0 0 368 298" fill="none" xmlns="http://www.w3.org/2000/svg">
<path d="M41 152.371C42.7579 231.645 106.091 294.245 184.629 296C185.072 296.006 185.511 295.924 185.922 295.758C186.333 295.593 186.706 295.347 187.021 295.036C187.336 294.725 187.586 294.354 187.755 293.945C187.925 293.536 188.012 293.097 188.01 292.654V283.444C262.257 283.444 322.451 223.25 322.451 149C322.451 74.7499 262.264 14.5524 188.01 14.5597V5.34228C188.012 4.89962 187.925 4.46111 187.755 4.05237C187.585 3.64362 187.336 3.27285 187.021 2.96171C186.706 2.65056 186.332 2.4053 185.922 2.24024C185.511 2.07518 185.071 1.99364 184.629 2.00039C147.972 2.79953 112.945 17.3056 86.4562 42.6576C86.1394 42.966 85.8871 43.3342 85.7137 43.7409C85.5404 44.1476 85.4496 44.5847 85.4466 45.0267C85.4436 45.4688 85.5283 45.9071 85.696 46.3161C85.8638 46.7251 86.1111 47.0968 86.4236 47.4095L92.9479 53.9338C80.4473 66.4054 70.5342 81.2242 63.7784 97.5387C57.0226 113.853 53.557 131.342 53.581 149H44.3564C43.9134 148.999 43.4746 149.086 43.0657 149.256C42.6567 149.427 42.2858 149.677 41.9744 149.992C41.663 150.307 41.4174 150.681 41.252 151.092C41.0866 151.503 41.0046 151.942 41.0109 152.385" fill="#6EDBFF"/>
<path d="M41 152.371C42.7579 231.645 106.091 294.245 184.629 296C185.072 296.006 185.511 295.924 185.922 295.758C186.333 295.593 186.706 295.347 187.021 295.036C187.336 294.725 187.586 294.354 187.755 293.945C187.925 293.536 188.012 293.097 188.01 292.654V283.444C262.257 283.444 322.451 223.25 322.451 149C322.451 74.7499 262.264 14.5524 188.01 14.5597V5.34228C188.012 4.89962 187.925 4.46111 187.755 4.05237C187.585 3.64362 187.336 3.27285 187.021 2.96171C186.706 2.65056 186.332 2.4053 185.922 2.24024C185.511 2.07518 185.071 1.99364 184.629 2.00039C147.972 2.79953 112.945 17.3056 86.4562 42.6576C86.1394 42.966 85.8871 43.3342 85.7137 43.7409C85.5404 44.1476 85.4496 44.5847 85.4466 45.0267C85.4436 45.4688 85.5283 45.9071 85.696 46.3161C85.8638 46.7251 86.1111 47.0968 86.4236 47.4095L92.9479 53.9338C80.4473 66.4054 70.5342 81.2242 63.7784 97.5387C57.0226 113.853 53.557 131.342 53.581 149H44.3564C43.9134 148.999 43.4746 149.086 43.0657 149.256C42.6567 149.427 42.2858 149.677 41.9744 149.992C41.663 150.307 41.4174 150.681 41.252 151.092C41.0866 151.503 41.0046 151.942 41.0109 152.385" stroke="white" stroke-width="2" stroke-linecap="round" stroke-linejoin="round"/>
<path d="M327.185 75.939V75.9064C327.105 75.6744 327.021 75.4497 326.924 75.2286L321.929 62.18L317.384 70.397L137.965 60.9368C134.898 60.7752 131.854 61.5602 129.247 63.1855C126.641 64.8108 124.596 67.1979 123.391 70.0237L57.6804 223.954L51.4497 221.358L55.8463 232.979C56.2982 234.459 57.177 235.772 58.3726 236.754C59.5681 237.736 61.0271 238.343 62.5664 238.499L249.774 257.71C253.081 258.049 256.406 257.279 259.228 255.521C262.049 253.763 264.206 251.117 265.36 247.999L327.083 81.1041C327.7 79.4435 327.736 77.6226 327.185 75.939V75.939Z" fill="black" stroke="black" stroke-width="1.2" stroke-linecap="round" stroke-linejoin="round"/>
<path d="M315.97 85.7027L260.601 235.432C259.447 238.549 257.29 241.195 254.469 242.953C251.647 244.71 248.322 245.48 245.015 245.142L57.8111 225.932C56.5845 225.806 55.4047 225.394 54.3666 224.729C53.3285 224.063 52.4612 223.163 51.8348 222.101C51.2084 221.039 50.8403 219.845 50.7603 218.615C50.6802 217.384 50.8903 216.152 51.3738 215.018L111.724 73.6074L315.97 85.7027Z" fill="white" stroke="black" stroke-width="1.2" stroke-linecap="round" stroke-linejoin="round"/>
<path d="M322.32 68.5337L315.97 85.7034L111.723 73.6081L118.61 57.4423C119.819 54.621 121.865 52.239 124.471 50.6184C127.078 48.9977 130.12 48.2167 133.185 48.3808L315.354 57.9498C316.586 58.0134 317.785 58.3659 318.856 58.979C319.926 59.592 320.837 60.4483 321.515 61.4787C322.194 62.509 322.62 63.6845 322.76 64.9101C322.9 66.1357 322.749 67.377 322.32 68.5337V68.5337Z" fill="#6EDBFF" stroke="black" stroke-width="1.2" stroke-linecap="round" stroke-linejoin="round"/>
<path d="M133.643 66.8152C137.019 66.6099 139.623 64.2421 139.458 61.5266C139.293 58.8112 136.421 56.7763 133.045 56.9817C129.668 57.187 127.064 59.5548 127.229 62.2703C127.394 64.9857 130.266 67.0206 133.643 66.8152Z" fill="black" stroke="black" stroke-width="1.2"/>
<path d="M150.438 67.5416C153.819 67.3999 156.466 65.0817 156.352 62.3636C156.239 59.6455 153.406 57.5569 150.026 57.6986C146.646 57.8402 143.998 60.1585 144.112 62.8766C144.226 65.5947 147.058 67.6833 150.438 67.5416Z" stroke="white" stroke-width="1.2"/>
<path d="M173.997 63.9679C174.133 61.2475 171.501 58.9049 168.118 58.7358C164.735 58.5666 161.882 60.6349 161.746 63.3554C161.61 66.0758 164.243 68.4184 167.626 68.5875C171.009 68.7567 173.861 66.6884 173.997 63.9679Z" stroke="white" stroke-width="1.2"/>
<path d="M170.174 198.868H170.083L85.9016 191.909C85.7588 191.897 85.6197 191.858 85.4922 191.792C85.3647 191.727 85.2514 191.637 85.1587 191.528C85.066 191.418 84.9957 191.292 84.9518 191.156C84.9079 191.019 84.8914 190.875 84.903 190.733C84.9147 190.59 84.9543 190.451 85.0198 190.323C85.0852 190.196 85.1751 190.083 85.2843 189.99C85.3936 189.897 85.52 189.827 85.6564 189.783C85.7928 189.739 85.9364 189.722 86.0792 189.734L170.264 196.693C170.553 196.705 170.825 196.831 171.02 197.044C171.215 197.256 171.318 197.538 171.306 197.826C171.294 198.114 171.168 198.386 170.956 198.582C170.743 198.777 170.462 198.88 170.174 198.868V198.868Z" fill="#6EDBFF"/>
<path d="M156.313 204.776H156.219L82.6141 198.686C82.4713 198.675 82.3322 198.635 82.2047 198.569C82.0772 198.504 81.9639 198.414 81.8712 198.305C81.7785 198.196 81.7081 198.069 81.6642 197.933C81.6203 197.797 81.6038 197.653 81.6154 197.51C81.6271 197.367 81.6668 197.228 81.7322 197.101C81.7977 196.973 81.8875 196.86 81.9967 196.767C82.106 196.674 82.2324 196.604 82.3688 196.56C82.5052 196.516 82.6489 196.5 82.7917 196.511L156.4 202.597C156.689 202.609 156.961 202.734 157.156 202.946C157.352 203.158 157.456 203.44 157.444 203.728C157.433 204.016 157.307 204.288 157.095 204.484C156.883 204.68 156.602 204.783 156.313 204.772V204.776Z" fill="#6EDBFF"/>
<path d="M144.033 210.916H143.943L80.2945 205.653C80.0061 205.629 79.7391 205.492 79.5521 205.271C79.3652 205.05 79.2737 204.764 79.2977 204.475C79.3217 204.187 79.4593 203.92 79.6803 203.733C79.9012 203.546 80.1873 203.454 80.4757 203.478L144.12 208.741C144.409 208.753 144.681 208.878 144.876 209.091C145.072 209.303 145.176 209.584 145.164 209.872C145.153 210.161 145.027 210.433 144.815 210.628C144.603 210.824 144.322 210.928 144.033 210.916V210.916Z" fill="#6EDBFF"/>
<path d="M68.0322 114.574L69.6705 122.885L221.828 132.57L220.106 123.846L68.0322 114.574Z" fill="#6EDBFF" stroke="black" stroke-width="1.2" stroke-linecap="round" stroke-linejoin="round"/>
<path d="M233.354 95.041L234.949 103.124L221.828 132.57L220.106 123.846L233.354 95.041Z" fill="black" stroke="black" stroke-width="1.2" stroke-linecap="round" stroke-linejoin="round"/>
<path d="M233.354 95.04L81.2657 86.3301L68.0322 114.573L220.106 123.845L233.354 95.04Z" fill="white" stroke="black" stroke-width="1.2" stroke-linecap="round" stroke-linejoin="round"/>
<path d="M57.4341 161.146L59.4711 169.389L199.428 180.988L197.706 172.267L57.4341 161.146Z" fill="#6EDBFF" stroke="black" stroke-width="1.2" stroke-linecap="round" stroke-linejoin="round"/>
<path d="M210.954 143.461L212.549 151.54L199.428 180.987L197.707 172.266L210.954 143.461Z" fill="black" stroke="black" stroke-width="1.2" stroke-linecap="round" stroke-linejoin="round"/>
<path d="M210.954 143.461L70.7255 134.77L57.4341 161.146L197.706 172.266L210.954 143.461Z" fill="white" stroke="black" stroke-width="1.2" stroke-linecap="round" stroke-linejoin="round"/>
<path d="M217.203 103.282H217.152L146.578 99.1718C146.468 99.1691 146.361 99.1445 146.261 99.0993C146.161 99.0542 146.072 98.9894 145.998 98.909C145.924 98.8285 145.867 98.7339 145.83 98.631C145.793 98.528 145.777 98.4186 145.784 98.3094C145.79 98.2002 145.818 98.0934 145.867 97.9954C145.915 97.8973 145.983 97.81 146.066 97.7386C146.148 97.6672 146.245 97.6132 146.349 97.5799C146.453 97.5465 146.563 97.5344 146.672 97.5444L217.25 101.655C217.357 101.658 217.463 101.682 217.561 101.726C217.658 101.77 217.747 101.832 217.82 101.91C217.894 101.988 217.951 102.08 217.989 102.18C218.027 102.28 218.045 102.387 218.042 102.494C218.039 102.601 218.015 102.706 217.971 102.804C217.927 102.902 217.865 102.99 217.787 103.064C217.709 103.137 217.617 103.195 217.517 103.233C217.417 103.271 217.31 103.289 217.203 103.286V103.282Z" fill="#6EDBFF"/>
<path d="M192.15 106.755H192.095L144.878 103.714C144.664 103.697 144.467 103.596 144.327 103.435C144.187 103.273 144.116 103.062 144.13 102.849C144.144 102.635 144.241 102.436 144.401 102.293C144.56 102.151 144.769 102.077 144.983 102.087L192.201 105.142C192.417 105.149 192.622 105.242 192.77 105.399C192.918 105.557 192.997 105.767 192.991 105.983C192.984 106.2 192.892 106.404 192.734 106.553C192.576 106.701 192.366 106.78 192.15 106.773V106.755Z" fill="#6EDBFF"/>
<path d="M194.495 151.375H194.448L129.734 147.605C129.518 147.593 129.315 147.495 129.171 147.333C129.027 147.171 128.953 146.959 128.966 146.742C128.978 146.526 129.076 146.324 129.238 146.18C129.4 146.035 129.612 145.962 129.828 145.974L194.542 149.744C194.758 149.75 194.963 149.842 195.112 149.999C195.26 150.156 195.34 150.366 195.334 150.583C195.328 150.799 195.236 151.004 195.079 151.152C194.921 151.301 194.711 151.381 194.495 151.375Z" fill="#6EDBFF"/>
<path d="M175.368 155.397H175.313L128.096 152.353C127.987 152.348 127.881 152.321 127.784 152.274C127.686 152.228 127.599 152.162 127.526 152.082C127.454 152.001 127.399 151.907 127.364 151.804C127.328 151.702 127.314 151.594 127.321 151.486C127.328 151.378 127.356 151.272 127.404 151.175C127.452 151.078 127.519 150.992 127.601 150.921C127.683 150.85 127.778 150.797 127.881 150.763C127.984 150.729 128.093 150.717 128.201 150.725L175.418 153.766C175.526 153.77 175.631 153.794 175.729 153.838C175.826 153.882 175.914 153.945 175.988 154.023C176.061 154.101 176.118 154.193 176.156 154.293C176.194 154.394 176.212 154.5 176.209 154.607C176.205 154.714 176.181 154.82 176.137 154.917C176.093 155.015 176.03 155.103 175.952 155.177C175.874 155.25 175.782 155.307 175.682 155.345C175.582 155.383 175.475 155.401 175.368 155.397Z" fill="#6EDBFF"/>
<path d="M80.2071 102.412L81.9904 98.5595C82.0746 98.3786 82.2252 98.2371 82.4109 98.1644L95.9271 93.0102C96.0692 92.9566 96.224 92.9465 96.3718 92.9811C96.5196 93.0158 96.6538 93.0937 96.7572 93.2049C96.8606 93.3161 96.9285 93.4555 96.9524 93.6054C96.9763 93.7554 96.955 93.909 96.8912 94.0468L95.4414 97.1495C95.3988 97.2436 95.3372 97.328 95.2605 97.3972C95.1838 97.4664 95.0936 97.5191 94.9956 97.5518L85.2598 100.868L85.5027 100.629L85.2273 101.224V100.955L91.0448 105.189C91.1884 105.293 91.2914 105.444 91.3364 105.616C91.3813 105.788 91.3654 105.97 91.2912 106.131L89.613 109.756C89.564 109.863 89.491 109.957 89.3997 110.031C89.3084 110.105 89.2014 110.157 89.0867 110.183C88.9721 110.209 88.853 110.208 88.7387 110.18C88.6244 110.153 88.518 110.099 88.4277 110.024L80.4029 103.329C80.272 103.221 80.1816 103.071 80.1461 102.905C80.1106 102.739 80.1321 102.565 80.2071 102.412V102.412Z" fill="#6EDBFF"/>
<path d="M94.7966 111.439C94.5292 111.441 94.2675 111.362 94.0453 111.213C93.823 111.065 93.6504 110.853 93.5497 110.605C93.4471 110.313 93.4083 110.002 93.4358 109.693C93.4633 109.384 93.5565 109.085 93.7092 108.815C94.0252 108.132 94.5278 107.553 95.159 107.144C95.7098 106.731 96.3847 106.517 97.0728 106.539C97.3336 106.544 97.5872 106.625 97.8028 106.771C98.0184 106.918 98.1866 107.124 98.2871 107.365C98.3966 107.65 98.4423 107.956 98.421 108.261C98.3997 108.566 98.3119 108.863 98.1638 109.13C97.9453 109.589 97.6415 110.002 97.2686 110.348C96.909 110.693 96.4935 110.975 96.0398 111.182C95.6534 111.37 95.226 111.459 94.7966 111.439V111.439Z" fill="#6EDBFF"/>
<path d="M102.151 111.963C101.883 111.965 101.621 111.887 101.399 111.738C101.177 111.589 101.004 111.377 100.904 111.129C100.8 110.838 100.761 110.527 100.788 110.218C100.816 109.91 100.91 109.611 101.063 109.342C101.38 108.659 101.883 108.079 102.513 107.668C103.064 107.255 103.739 107.043 104.427 107.066C104.688 107.07 104.942 107.15 105.158 107.297C105.374 107.444 105.542 107.651 105.641 107.893C105.751 108.178 105.798 108.484 105.778 108.79C105.758 109.095 105.672 109.393 105.525 109.661C105.305 110.119 105.001 110.532 104.63 110.879C104.27 111.223 103.855 111.504 103.401 111.709C103.013 111.899 102.582 111.986 102.151 111.963Z" fill="#6EDBFF"/>
<path d="M109.512 112.492C109.245 112.494 108.983 112.416 108.76 112.267C108.538 112.118 108.366 111.906 108.265 111.658C108.161 111.366 108.121 111.055 108.148 110.746C108.176 110.436 108.27 110.137 108.425 109.868C108.742 109.185 109.244 108.605 109.875 108.193C110.425 107.781 111.101 107.568 111.788 107.592C112.049 107.597 112.303 107.678 112.518 107.824C112.734 107.971 112.902 108.177 113.003 108.418C113.113 108.704 113.159 109.01 113.139 109.315C113.119 109.621 113.033 109.918 112.887 110.187C112.668 110.646 112.364 111.059 111.991 111.405C111.631 111.749 111.216 112.031 110.763 112.238C110.374 112.427 109.944 112.514 109.512 112.492V112.492Z" fill="#6EDBFF"/>
<path d="M130.702 106.713L117.186 111.867C117.043 111.922 116.888 111.932 116.74 111.898C116.591 111.864 116.456 111.786 116.352 111.675C116.248 111.563 116.18 111.424 116.156 111.273C116.132 111.123 116.154 110.968 116.218 110.83L117.668 107.738C117.712 107.644 117.774 107.56 117.851 107.491C117.929 107.422 118.019 107.369 118.117 107.336L127.856 104.012L127.617 104.259L127.893 103.664V103.922L122.057 99.7063C121.913 99.6019 121.81 99.4509 121.766 99.2791C121.721 99.1073 121.737 98.9252 121.811 98.7639L123.492 95.1393C123.541 95.0325 123.614 94.9384 123.705 94.8643C123.796 94.7903 123.902 94.7382 124.017 94.7122C124.131 94.6863 124.25 94.6871 124.364 94.7146C124.478 94.7422 124.584 94.7957 124.674 94.8711L132.703 101.569C132.833 101.677 132.923 101.825 132.96 101.99C132.996 102.154 132.977 102.326 132.906 102.479L131.122 106.328C131.036 106.505 130.886 106.643 130.702 106.713V106.713Z" fill="#6EDBFF"/>
<path d="M71.3742 149.754L72.9871 146.267C73.0626 146.101 73.2006 145.97 73.3713 145.905L85.6008 141.243C85.729 141.195 85.8687 141.186 86.0021 141.217C86.1355 141.249 86.2567 141.319 86.3502 141.419C86.4437 141.519 86.5055 141.645 86.5275 141.78C86.5496 141.915 86.5311 142.054 86.4743 142.179L85.1766 144.988C85.137 145.072 85.0806 145.148 85.0108 145.21C84.941 145.273 84.8594 145.32 84.7707 145.35L75.9629 148.351L76.1804 148.134L75.9303 148.674V148.431L81.1896 152.262C81.32 152.356 81.4136 152.493 81.454 152.648C81.4944 152.804 81.479 152.969 81.4107 153.114L79.8956 156.376C79.8515 156.475 79.7847 156.562 79.7008 156.631C79.6168 156.699 79.518 156.747 79.4122 156.77C79.3065 156.793 79.1968 156.791 79.0919 156.765C78.987 156.738 78.8898 156.687 78.8083 156.615L71.559 150.555C71.4472 150.459 71.3689 150.329 71.3357 150.185C71.3025 150.041 71.3159 149.89 71.3742 149.754V149.754Z" fill="#6EDBFF"/>
<path d="M84.5787 157.925C84.3365 157.926 84.0993 157.855 83.8978 157.721C83.6963 157.586 83.5396 157.395 83.4477 157.171C83.3548 156.906 83.3197 156.624 83.3447 156.345C83.3698 156.065 83.4543 155.795 83.5928 155.551C83.8781 154.933 84.3315 154.408 84.9012 154.035C85.3988 153.663 86.0087 153.471 86.6302 153.492C86.8643 153.497 87.0918 153.571 87.2849 153.703C87.478 153.836 87.6283 154.022 87.7175 154.238C87.8181 154.497 87.8607 154.774 87.8426 155.051C87.8244 155.328 87.7459 155.597 87.6124 155.841C87.4129 156.25 87.1388 156.619 86.8041 156.928C86.4778 157.238 86.1032 157.492 85.6951 157.682C85.3488 157.854 84.9651 157.937 84.5787 157.925V157.925Z" fill="#6EDBFF"/>
<path d="M91.2373 158.403C90.9948 158.404 90.7576 158.332 90.5561 158.197C90.3547 158.062 90.1981 157.87 90.1064 157.645C90.0136 157.381 89.9784 157.1 90.0034 156.821C90.0284 156.543 90.113 156.272 90.2514 156.029C90.5367 155.411 90.9902 154.886 91.5599 154.514C92.0563 154.138 92.6668 153.945 93.2888 153.966C93.5231 153.974 93.7502 154.048 93.9431 154.181C94.1359 154.314 94.2864 154.5 94.3762 154.717C94.4767 154.975 94.5193 155.251 94.5012 155.528C94.483 155.804 94.4045 156.073 94.2711 156.315C94.0724 156.725 93.7982 157.094 93.4628 157.403C93.1377 157.714 92.7628 157.969 92.3537 158.156C92.0082 158.331 91.6242 158.416 91.2373 158.403Z" fill="#6EDBFF"/>
<path d="M97.8919 158.878C97.6504 158.879 97.4141 158.807 97.2133 158.673C97.0125 158.539 96.8562 158.347 96.7646 158.124C96.6717 157.859 96.6366 157.578 96.6616 157.298C96.6866 157.019 96.7712 156.748 96.9097 156.504C97.195 155.886 97.6484 155.361 98.2181 154.989C98.7157 154.616 99.3256 154.424 99.9471 154.445C100.181 154.45 100.409 154.524 100.602 154.657C100.795 154.789 100.945 154.975 101.034 155.192C101.135 155.45 101.178 155.728 101.159 156.004C101.141 156.281 101.063 156.551 100.929 156.794C100.73 157.203 100.456 157.572 100.121 157.881C99.795 158.191 99.4204 158.446 99.012 158.635C98.6645 158.807 98.2796 158.891 97.8919 158.878V158.878Z" fill="#6EDBFF"/>
<path d="M117.07 153.647L104.84 158.308C104.712 158.358 104.571 158.368 104.437 158.337C104.303 158.306 104.181 158.236 104.087 158.136C103.993 158.035 103.931 157.909 103.909 157.773C103.887 157.638 103.906 157.498 103.963 157.373L105.261 154.575C105.3 154.49 105.357 154.415 105.427 154.352C105.496 154.29 105.578 154.243 105.667 154.213L114.478 151.204L114.26 151.432L114.511 150.892V151.124L109.24 147.3C109.117 147.204 109.03 147.069 108.993 146.917C108.956 146.765 108.972 146.605 109.037 146.463L110.56 143.176C110.604 143.077 110.671 142.99 110.755 142.921C110.839 142.853 110.937 142.805 111.043 142.782C111.149 142.759 111.259 142.76 111.364 142.787C111.468 142.814 111.566 142.865 111.647 142.936L118.896 148.997C119.013 149.095 119.094 149.228 119.128 149.377C119.161 149.526 119.145 149.681 119.081 149.82L117.465 153.306C117.383 153.467 117.241 153.59 117.07 153.647V153.647Z" fill="#6EDBFF"/>
<path d="M288.626 152.24V172.27L286.788 174.89L275.356 167.645L288.626 152.24Z" fill="black" stroke="black" stroke-width="1.2" stroke-linecap="round" stroke-linejoin="round"/>
<path d="M270.844 211.329V231.355L296.035 200.774V180.744L270.844 211.329Z" fill="black" stroke="black" stroke-width="1.2" stroke-linecap="round" stroke-linejoin="round"/>
<path d="M249.799 197.312V217.342L235.493 233.95V213.92L249.799 197.312Z" fill="black" stroke="black" stroke-width="1.2" stroke-linecap="round" stroke-linejoin="round"/>
<path d="M191.385 133.689V149.562L235.493 233.95V213.92L191.385 133.689Z" fill="#6EDBFF"/>
<path d="M194.981 157.731L194.324 138.227L191.28 130.26V150.289L194.981 157.731Z" fill="white"/>
<path d="M191.385 133.689V149.562L235.493 233.95V213.92L191.385 133.689Z" stroke="black" stroke-width="1.2" stroke-linecap="round" stroke-linejoin="round"/>
<path d="M249.799 197.312V217.342L270.844 231.355V211.329L249.799 197.312Z" fill="#6EDBFF" stroke="black" stroke-width="1.2" stroke-linecap="round" stroke-linejoin="round"/>
<path d="M288.626 152.24V172.27L286.788 174.89" stroke="#6EDBFF" stroke-width="1.2" stroke-linecap="round" stroke-linejoin="round"/>
<path d="M191.385 133.689L235.493 213.92L249.799 197.312L270.844 211.329L296.035 180.744L275.357 167.645L288.626 152.24L191.385 133.689Z" fill="white" stroke="black" stroke-width="1.2" stroke-linecap="round" stroke-linejoin="round"/>
</svg>
